<svg xmlns="http://www.w3.org/2000/svg" version="1.1" xmlns:xlink="http://www.w3.org/1999/xlink" xmlns:svgjs="http://svgjs.dev/svgjs" width="2000" height="1415" viewBox="0 0 2000 1415"><g transform="matrix(1,0,0,1,1.4175555350155946,0.5739323753093686)"><svg viewBox="0 0 349 247" data-background-color="#ffffff" preserveAspectRatio="xMidYMid meet" height="1415" width="2000" xmlns="http://www.w3.org/2000/svg" xmlns:xlink="http://www.w3.org/1999/xlink"><g id="tight-bounds" transform="matrix(1,0,0,1,-0.24736344086022655,-0.09997365579206985)"><svg viewBox="0 0 349.49472688172045 247.2" height="247.2" width="349.49472688172045"><g><svg viewBox="0 0 349.49472688172045 247.2" height="247.2" width="349.49472688172045"><g><svg viewBox="0 0 349.49472688172045 247.2" height="247.2" width="349.49472688172045"><g id="textblocktransform"><svg viewBox="0 0 349.49472688172045 247.2" height="247.2" width="349.49472688172045" id="textblock"><g><svg viewBox="0 0 349.49472688172045 247.2" height="247.2" width="349.49472688172045"><path d="M348.676 53.02C347.033 27.36 342.351 20.227 342.351 20.227 327.974-6.202 310.032-0.506 293.914 3.292 265.456 3.446 237.113 9.091 208.722 12.119 149.128 12.581 89.025 4.986 29.728 23.717 24.158 29.464-5.779 24.846 0.991 56.304 2.765 69.39 9.239 83.913 9.042 95.922 9.929 98.026 11.161 93.202 11.687 96.23 13.527 104.39 16.534 100.541 18.999 105.365 15.565 118.246 18.029 128.971 20.379 140.21 16.238 143.135 10.931 141.749 8.549 151.449 8.302 158.479 6.971 157.145 5.509 156.837 4.441 156.632 2.289 157.402 2.65 159.608 3.883 167.152-1.408 171.514 1.911 178.904-0.373 186.91 3.488 193.838 2.962 202.511 2.897 204.255 3.258 205.744 3.833 206.154 6.38 208.361 2.667 212.672 3.061 217.342 29.185 249.262 57.528 227.195 84.293 241.872 91.243 231.608 86.019 245.516 88.795 243.36 90.964 240.846 92.541 251.263 94.99 245.362 95.368 243.668 94.792 239.665 96.14 240.435 96.846 240.846 97.471 240.743 97.569 238.382 97.717 234.841 96.419 237.048 96.074 235.201 99.804 225.861 98.884 248.081 102.383 247.158 102.219 244.438 101.2 240.538 103.287 241.051 105.357 237.151 105.423 233.918 107.263 242.693 107.329 244.592 107.658 245.926 108.183 246.85 113.934 237.305 119.652 250.237 125.682 245.926 129.379 241.205 132.928 248.492 136.674 246.696 137.988 245.259 139.319 242.693 140.584 247.004 156.078 247.928 172.591 244.079 187.28 247.158 226.532 241.41 268.479 249.518 309.868 241.923 319.627 238.998 329.765 234.841 339.278 231.506 339.278 231.506 346.984 222.371 346.984 181.316S348.627 145.393 348.874 112.703C349.12 80.013 350.27 78.679 348.627 53.02Z" opacity="1" fill="#222222" data-fill-palette-color="tertiary"></path><g transform="matrix(1,0,0,1,55.76832000000002,26.230666666666668)"><svg width="237.95808688172042" viewBox="1.37 -37.35 46.230000000000004 37.84" height="194.73866666666666" data-palette-color="#faebd7"><path d="M18.02-26.1L18.02-26.1Q18.68-24.63 18.68-23.14 18.68-21.66 18.54-20.68 18.41-19.7 18.14-18.8L18.14-18.8Q17.53-16.75 16.41-15.65L16.41-15.65Q15.65-19.43 14.76-20.56 13.87-21.68 12.98-22.07 12.08-22.46 11.08-22.46 10.08-22.46 9.45-22.27 8.81-22.07 8.35-21.7L8.35-21.7Q7.3-20.9 7.3-19.87 7.3-18.85 7.81-18.1 8.33-17.36 9.17-16.71 10.01-16.06 11.08-15.45L11.08-15.45 13.28-14.21Q16.11-12.62 17.16-11.57L17.16-11.57Q19.24-9.5 19.24-7.2L19.24-7.2Q19.24-4.2 17.19-2.15L17.19-2.15Q14.6 0.49 9.42 0.49L9.42 0.49Q4.71 0.49 2.34-1.71L2.34-1.71Q1.66-2.34 1.37-2.98L1.37-2.98Q1.56-4.81 3-6.42L3-6.42Q4.39-7.98 5.71-8.23L5.71-8.23Q5.62-7.91 5.62-7.28 5.62-6.64 5.98-5.7 6.35-4.76 7.03-3.96L7.03-3.96Q8.57-2.1 10.5-2.1 12.43-2.1 13.33-2.98 14.23-3.86 14.23-4.98 14.23-6.1 13.72-6.86 13.21-7.62 12.37-8.28 11.52-8.94 10.45-9.55L10.45-9.55 8.25-10.79Q5.44-12.45 4.39-13.62L4.39-13.62Q2.29-15.97 2.29-18.73L2.29-18.73Q2.29-21.63 4.74-23.44L4.74-23.44Q7.06-25.15 10.52-25.15L10.52-25.15 14.82-24.85Q16.38-24.85 16.99-25.23 17.6-25.61 18.02-26.1ZM31.08-12.16L31.08-10.35Q31.08-3.27 32.03 0L32.03 0 24.83 0Q25.51-2.37 25.68-5.59L25.68-5.59Q26.05-13.38 26.05-17.68 26.05-21.97 26.02-23.45 26-24.93 25.97-26.42L25.97-26.42Q25.83-31.67 25.47-33.09 25.12-34.52 24.8-35.16L24.8-35.16Q24.34-36.18 23.31-37.35L23.31-37.35 32.22-37.35Q31.54-34.89 31.42-32.69L31.42-32.69 31.25-29.15Q31.08-25.12 31.08-23.02 31.08-20.92 31.11-20.19 31.15-19.46 31.3-18.99L31.3-18.99Q31.59-18.02 32.77-18.07 33.96-18.12 34.91-18.57 35.86-19.02 36.47-19.73L36.47-19.73Q37.69-21.09 37.69-22.63 37.69-24.17 37.33-24.66L37.33-24.66 44.38-24.66Q44.09-24.07 43.86-23.47 43.63-22.88 43.36-22.27L43.36-22.27Q41.62-18.41 37.89-16.67L37.89-16.67Q38.13-11.62 41.21-6.54L41.21-6.54Q44.11-1.83 47.6 0L47.6 0 39.43 0Q36.98-1.17 35.47-7.86L35.47-7.86Q34.96-10.13 34.79-12.23 34.62-14.33 34.25-14.98 33.88-15.63 32.93-15.63L32.93-15.63Q31.08-15.63 31.08-12.16L31.08-12.16Z" opacity="1" transform="matrix(1,0,0,1,0,0)" fill="#faebd7" class="wordmark-text-0" data-fill-palette-color="quaternary" id="text-0"></path></svg></g></svg></g></svg></g></svg></g><g></g></svg></g><defs></defs></svg><rect width="349.49472688172045" height="247.2" fill="none" stroke="none" visibility="hidden"></rect></g></svg></g></svg>